<?xml version="1.0"?>
<svg width="640" height="480" xmlns="http://www.w3.org/2000/svg" xmlns:svg="http://www.w3.org/2000/svg">
 <!-- Created with SVG-edit - https://github.com/SVG-Edit/svgedit-->

 <g class="layer">
  <title>Layer 1</title>
  <path d="m0,10.688744l0,-0.031c0.281,-3.625 1.594,-6.344 3.875,-8.063c2.25,-1.75 4.688,-2.594 7.344,-2.594c2.781,-0.031 5.375,0.906 7.688,2.781c2.344,1.844 3.5,4.594 3.5,8.156l0,0.219c0,3.594 -1.156,6.281 -3.5,8.125c-2.344,1.875 -4.938,2.813 -7.719,2.813l-0.125,0c-2.719,-0.031 -5.219,-0.969 -7.531,-2.844c-2.313,-1.844 -3.5,-4.688 -3.531,-8.563l-0.001,0.001zm10.531,-4.906l0,-4.938l-0.75,0c-0.156,0.188 -0.281,0.406 -0.406,0.594s-0.25,0.375 -0.375,0.594c-0.125,0.188 -0.281,0.438 -0.375,0.625c-0.125,0.188 -0.219,0.375 -0.313,0.594c-0.188,0.313 -0.344,0.625 -0.469,0.906c-0.156,0.281 -0.281,0.563 -0.375,0.813c0.188,0.125 0.406,0.281 0.656,0.375c0.281,0.094 0.563,0.188 0.844,0.25c0.313,0.063 0.594,0.094 0.844,0.125c0.281,0.031 0.531,0.063 0.719,0.063l0,-0.001zm1.313,-4.937l0,4.906c0.156,0 0.344,0.031 0.531,0c0.188,0 0.406,-0.031 0.594,-0.063c0.344,-0.063 0.75,-0.156 1.063,-0.25c0.344,-0.125 0.656,-0.281 0.875,-0.469c-0.375,-0.906 -0.781,-1.625 -1.188,-2.313s-0.875,-1.281 -1.375,-1.781l0,-0.031l-0.5,0l0,0.001zm-3.375,0.281l0,-0.031c-0.219,0.094 -0.438,0.25 -0.688,0.344c-0.219,0.094 -0.5,0.219 -0.719,0.344c-0.438,0.219 -0.875,0.469 -1.313,0.75c-0.406,0.281 -0.813,0.594 -1.156,0.906c0.125,0.125 0.281,0.25 0.406,0.344s0.281,0.219 0.438,0.344c0.125,0.063 0.281,0.156 0.438,0.281c0.156,0.094 0.344,0.219 0.531,0.344c0.25,-0.563 0.5,-1.156 0.813,-1.688c0.313,-0.563 0.656,-1.094 1,-1.563c0.031,-0.063 0.063,-0.125 0.125,-0.188c0.031,-0.031 0.063,-0.125 0.125,-0.188l0,0.001zm9.562,2.312l0,-0.031c-0.781,-0.594 -1.469,-1.094 -2.156,-1.406s-1.375,-0.625 -2,-0.875c0.5,0.5 0.938,1.125 1.219,1.719c0.313,0.625 0.625,1.281 0.875,1.906c0.125,-0.063 0.281,-0.125 0.469,-0.25c0.156,-0.094 0.375,-0.188 0.563,-0.281c0.188,-0.125 0.344,-0.25 0.531,-0.375c0.188,-0.156 0.375,-0.281 0.5,-0.406l-0.001,-0.001zm-0.531,6.969l3.594,0c0,-1.156 -0.25,-2.25 -0.719,-3.375c-0.438,-1.094 -1.063,-2 -1.844,-2.781l0,-0.031c-0.156,0.25 -0.375,0.469 -0.594,0.625c-0.25,0.156 -0.469,0.281 -0.719,0.406c-0.156,0.094 -0.313,0.219 -0.469,0.281c-0.156,0.094 -0.375,0.156 -0.531,0.25c0.125,0.25 0.25,0.531 0.375,0.781c0.094,0.281 0.25,0.594 0.313,0.875c0.188,0.5 0.313,1.031 0.438,1.563c0.094,0.469 0.156,0.969 0.156,1.406zm-11.312,-4.625l0,-0.031c-0.25,-0.125 -0.531,-0.219 -0.75,-0.344c-0.219,-0.156 -0.438,-0.313 -0.625,-0.438c-0.188,-0.094 -0.375,-0.219 -0.531,-0.344s-0.281,-0.25 -0.406,-0.375c-0.813,0.781 -1.406,1.656 -1.781,2.688c-0.406,1.031 -0.688,2.188 -0.813,3.438l3.844,0c0,-0.875 0.125,-1.719 0.344,-2.563c0.188,-0.875 0.469,-1.531 0.719,-2.031l-0.001,0zm4.343,4.594l0,-3.594c-0.25,0.031 -0.563,0.031 -0.844,0c-0.313,-0.031 -0.625,-0.125 -0.906,-0.219c-0.25,-0.063 -0.563,-0.125 -0.813,-0.219c-0.281,-0.063 -0.563,-0.188 -0.781,-0.313c-0.188,0.313 -0.344,0.688 -0.469,1.094c-0.156,0.375 -0.25,0.781 -0.344,1.156c-0.063,0.375 -0.094,0.781 -0.125,1.125s-0.063,0.688 -0.063,0.969l4.344,0l0.001,0.001zm1.313,-3.531l0,3.531l4.625,0c0,-0.188 0,-0.406 -0.031,-0.656c-0.063,-0.219 -0.094,-0.5 -0.125,-0.75c-0.094,-0.375 -0.188,-0.781 -0.313,-1.156c-0.125,-0.344 -0.25,-0.688 -0.406,-0.969c-0.063,-0.156 -0.125,-0.344 -0.188,-0.469c-0.094,-0.156 -0.188,-0.25 -0.25,-0.344c-0.344,0.25 -0.813,0.406 -1.375,0.531c-0.531,0.125 -1.156,0.25 -1.719,0.281l-0.219,0l0.001,0.001zm-6.719,4.562l-3.844,0c0,0.531 0.094,1.125 0.25,1.844c0.156,0.75 0.469,1.438 0.813,2.188c0.156,0.375 0.344,0.75 0.531,1.125c0.219,0.344 0.469,0.719 0.719,1.063c0.188,-0.125 0.375,-0.219 0.531,-0.313c0.188,-0.094 0.406,-0.219 0.594,-0.313c0.219,-0.094 0.438,-0.188 0.688,-0.313c0.219,-0.094 0.5,-0.219 0.781,-0.344c-0.25,-0.781 -0.531,-1.531 -0.719,-2.375c-0.219,-0.813 -0.344,-1.625 -0.344,-2.531l0,-0.031zm5.406,3.656l0,-3.656l-4.344,0c0,0.25 0.031,0.625 0.094,1c0.031,0.375 0.125,0.781 0.188,1.188c0.125,0.438 0.219,0.875 0.344,1.25s0.25,0.688 0.375,0.969c0.563,-0.219 1.125,-0.375 1.5,-0.469c0.406,-0.125 0.781,-0.219 1.156,-0.25l0.344,0c0.125,-0.031 0.25,-0.031 0.344,-0.031l-0.001,-0.001zm1.313,-3.656l0,3.625c0.219,0.031 0.469,0.063 0.719,0.094c0.281,0.031 0.625,0.094 0.906,0.156l0.469,0.094c0.156,0.063 0.344,0.094 0.5,0.125c0.188,0.063 0.375,0.094 0.563,0.156c0.156,0.063 0.313,0.094 0.438,0.156c0.406,-1.031 0.656,-1.875 0.813,-2.594c0.156,-0.688 0.219,-1.281 0.219,-1.781l0,-0.031l-4.625,0l-0.002,0zm9.25,0.031l0,-0.031l-3.594,0l0,0.188c-0.031,0.594 -0.125,1.281 -0.25,2c-0.125,0.688 -0.406,1.5 -0.781,2.5c0.5,0.25 0.969,0.5 1.344,0.75s0.719,0.531 0.969,0.781c0.531,-0.531 1,-1.25 1.406,-2.188c0.406,-0.906 0.688,-1.844 0.844,-2.844c0.031,-0.188 0.031,-0.375 0.063,-0.563l0,-0.594l-0.001,0.001zm-10.563,9.5l0,-4.875c-0.781,0.125 -1.438,0.281 -1.938,0.406s-0.875,0.25 -1.125,0.375c0.188,0.469 0.375,0.875 0.563,1.25c0.188,0.344 0.406,0.719 0.594,1.031c0.063,0.125 0.188,0.25 0.281,0.406c0.094,0.125 0.156,0.281 0.25,0.406c0.094,0.156 0.188,0.344 0.281,0.531c0.125,0.156 0.219,0.344 0.344,0.469l0.75,0l0,0.001zm1.313,0l0.719,0c0.281,-0.219 0.563,-0.531 0.781,-0.875c0.25,-0.344 0.531,-0.75 0.719,-1.094c0.219,-0.406 0.438,-0.781 0.625,-1.156s0.344,-0.719 0.469,-0.969c-0.344,-0.125 -0.813,-0.25 -1.281,-0.375s-1.125,-0.25 -2.031,-0.375l0,4.844l-0.001,0zm6.187,-2.562l0,-0.031c-0.063,-0.094 -0.188,-0.219 -0.281,-0.313s-0.25,-0.219 -0.406,-0.313c-0.125,-0.094 -0.281,-0.188 -0.469,-0.281s-0.438,-0.219 -0.656,-0.344c-0.125,0.25 -0.344,0.688 -0.656,1.281c-0.281,0.594 -0.781,1.313 -1.406,2.094c0.781,-0.125 1.469,-0.406 2.094,-0.781c0.688,-0.344 1.281,-0.813 1.781,-1.313l-0.001,0.001zm-11.625,-1l0,-0.031c-0.219,0.125 -0.563,0.281 -0.906,0.438c-0.375,0.156 -0.781,0.344 -1.156,0.594c0.219,0.188 0.438,0.375 0.625,0.5c0.188,0.156 0.406,0.281 0.594,0.406c0.344,0.219 0.75,0.438 1.156,0.625s0.906,0.375 1.531,0.563c-0.219,-0.25 -0.375,-0.563 -0.531,-0.813s-0.344,-0.5 -0.5,-0.75s-0.281,-0.531 -0.406,-0.781c-0.156,-0.25 -0.281,-0.5 -0.406,-0.75l-0.001,-0.001z" fill="black" id="svg_5"/>
  <g id="svg_3"/>
 </g>
</svg>