<?xml version="1.0" encoding="utf-8"?>
<!-- Uploaded to: SVG Repo, www.svgrepo.com, Generator: SVG Repo Mixer Tools -->
<svg width="485" height="478" xmlns="http://www.w3.org/2000/svg" xmlns:svg="http://www.w3.org/2000/svg">
 <!-- Created with SVG-edit - https://github.com/SVG-Edit/svgedit-->
 <g class="layer">
  <title>Layer 1</title>
  <path d="m0,231.075236l0,-0.670175c6.074815,-78.367269 34.45998,-137.148125 83.771908,-174.310425c48.641753,-37.832475 101.347795,-56.078537 158.766682,-56.078537c60.121207,-0.670175 116.199744,19.586413 166.203466,60.121207c50.673898,39.864619 75.664949,99.315651 75.664949,176.320951l0,4.734464c0,77.697094 -24.991052,135.786156 -75.664949,175.650775c-50.673898,40.534794 -106.752434,60.813001 -166.873641,60.813001l-2.70232,0c-58.780856,-0.670175 -112.827249,-20.948382 -162.809353,-61.483176c-50.003722,-39.864619 -75.664949,-101.347795 -76.335125,-185.119703l-0.021619,0.021619l0.000002,-0.000001zm227.665024,-106.060641l0,-106.752434l-16.213918,0c-3.372495,4.064289 -6.074815,8.777134 -8.777134,12.841423s-5.404639,8.106959 -8.106959,12.841423c-2.70232,4.064289 -6.074815,9.468928 -8.106959,13.511598c-2.70232,4.064289 -4.734464,8.106959 -6.766608,12.841423c-4.064289,6.766608 -7.436784,13.511598 -10.139103,19.586413c-3.372495,6.074815 -6.074815,12.171248 -8.106959,17.575887c4.064289,2.70232 8.777134,6.074815 14.181773,8.106959c6.074815,2.032144 12.171248,4.064289 18.246062,5.404639c6.766608,1.361969 12.841423,2.032144 18.246062,2.70232c6.074815,0.670175 11.479454,1.361969 15.543742,1.361969l0,-0.021619l0.000001,-0.000001zm28.385165,-106.730816l0,106.060641c3.372495,0 7.436784,0.670175 11.479454,0c4.064289,0 8.777134,-0.670175 12.841423,-1.361969c7.436784,-1.361969 16.213918,-3.372495 22.980526,-5.404639c7.436784,-2.70232 14.181773,-6.074815 18.916237,-10.139103c-8.106959,-19.586413 -16.884093,-35.130155 -25.682846,-50.003722s-18.916237,-27.693371 -29.725516,-38.50265l0,-0.670175l-10.809278,0l0,0.021619l0,-0.000002zm-72.96263,6.074815l0,-0.670175c-4.734464,2.032144 -9.468928,5.404639 -14.873567,7.436784c-4.734464,2.032144 -10.809278,4.734464 -15.543742,7.436784c-9.468928,4.734464 -18.916237,10.139103 -28.385165,16.213918c-8.777134,6.074815 -17.575887,12.841423 -24.991052,19.586413c2.70232,2.70232 6.074815,5.404639 8.777134,7.436784s6.074815,4.734464 9.468928,7.436784c2.70232,1.361969 6.074815,3.372495 9.468928,6.074815c3.372495,2.032144 7.436784,4.734464 11.479454,7.436784c5.404639,-12.171248 10.809278,-24.991052 17.575887,-36.492124c6.766608,-12.171248 14.181773,-23.650701 21.618557,-33.789805c0.670175,-1.361969 1.361969,-2.70232 2.70232,-4.064289c0.670175,-0.670175 1.361969,-2.70232 2.70232,-4.064289l0,0.021619l-0.000002,-0.000003zm206.716642,49.982104l0,-0.670175c-16.884093,-12.841423 -31.75766,-23.650701 -46.609609,-30.395691s-29.725516,-13.511598 -43.237114,-18.916237c10.809278,10.809278 20.278206,24.320877 26.353021,37.162299c6.766608,13.511598 13.511598,27.693371 18.916237,41.20497c2.70232,-1.361969 6.074815,-2.70232 10.139103,-5.404639c3.372495,-2.032144 8.106959,-4.064289 12.171248,-6.074815c4.064289,-2.70232 7.436784,-5.404639 11.479454,-8.106959c4.064289,-3.372495 8.106959,-6.074815 10.809278,-8.777134l-0.021619,-0.021619l0.000001,0zm-11.479454,150.659724l77.697094,0c0,-24.991052 -5.404639,-48.641753 -15.543742,-72.96263c-9.468928,-23.650701 -22.980526,-43.237114 -39.864619,-60.121207l0,-0.670175c-3.372495,5.404639 -8.106959,10.139103 -12.841423,13.511598c-5.404639,3.372495 -10.139103,6.074815 -15.543742,8.777134c-3.372495,2.032144 -6.766608,4.734464 -10.139103,6.074815c-3.372495,2.032144 -8.106959,3.372495 -11.479454,5.404639c2.70232,5.404639 5.404639,11.479454 8.106959,16.884093c2.032144,6.074815 5.404639,12.841423 6.766608,18.916237c4.064289,10.809278 6.766608,22.288732 9.468928,33.789805c2.032144,10.139103 3.372495,20.948382 3.372495,30.395691l-0.000001,0zm-244.549117,-99.985826l0,-0.670175c-5.404639,-2.70232 -11.479454,-4.734464 -16.213918,-7.436784c-4.734464,-3.372495 -9.468928,-6.766608 -13.511598,-9.468928c-4.064289,-2.032144 -8.106959,-4.734464 -11.479454,-7.436784s-6.074815,-5.404639 -8.777134,-8.106959c-17.575887,16.884093 -30.395691,35.80033 -38.50265,58.110681c-8.777134,22.288732 -14.873567,47.301403 -17.575887,74.324599l83.101733,0c0,-18.916237 2.70232,-37.162299 7.436784,-55.408362c4.064289,-18.916237 10.139103,-33.098011 15.543742,-43.907289l-0.021619,0l0.000001,0.000001zm93.889393,99.315651l0,-77.697094c-5.404639,0.670175 -12.171248,0.670175 -18.246062,0c-6.766608,-0.670175 -13.511598,-2.70232 -19.586413,-4.734464c-5.404639,-1.361969 -12.171248,-2.70232 -17.575887,-4.734464c-6.074815,-1.361969 -12.171248,-4.064289 -16.884093,-6.766608c-4.064289,6.766608 -7.436784,14.873567 -10.139103,23.650701c-3.372495,8.106959 -5.404639,16.884093 -7.436784,24.991052c-1.361969,8.106959 -2.032144,16.884093 -2.70232,24.320877s-1.361969,14.873567 -1.361969,20.948382l93.911012,0l0.021619,0.021619l0,-0.000001zm28.385165,-76.335125l0,76.335125l99.985826,0c0,-4.064289 0,-8.777134 -0.670175,-14.181773c-1.361969,-4.734464 -2.032144,-10.809278 -2.70232,-16.213918c-2.032144,-8.106959 -4.064289,-16.884093 -6.766608,-24.991052c-2.70232,-7.436784 -5.404639,-14.873567 -8.777134,-20.948382c-1.361969,-3.372495 -2.70232,-7.436784 -4.064289,-10.139103c-2.032144,-3.372495 -4.064289,-5.404639 -5.404639,-7.436784c-7.436784,5.404639 -17.575887,8.777134 -29.725516,11.479454c-11.479454,2.70232 -24.991052,5.404639 -37.162299,6.074815l-4.734464,0l0.021619,0.021619l-0.000001,-0.000001zm-145.255084,98.623857l-83.101733,0c0,11.479454 2.032144,24.320877 5.404639,39.864619c3.372495,16.213918 10.139103,31.087485 17.575887,47.301403c3.372495,8.106959 7.436784,16.213918 11.479454,24.320877c4.734464,7.436784 10.139103,15.543742 15.543742,22.980526c4.064289,-2.70232 8.106959,-4.734464 11.479454,-6.766608c4.064289,-2.032144 8.777134,-4.734464 12.841423,-6.766608c4.734464,-2.032144 9.468928,-4.064289 14.873567,-6.766608c4.734464,-2.032144 10.809278,-4.734464 16.884093,-7.436784c-5.404639,-16.884093 -11.479454,-33.098011 -15.543742,-51.344073c-4.734464,-17.575887 -7.436784,-35.130155 -7.436784,-54.716568l0,-0.670175l0,-0.000001zm116.869919,79.037444l0,-79.037444l-93.911012,0c0,5.404639 0.670175,13.511598 2.032144,21.618557c0.670175,8.106959 2.70232,16.884093 4.064289,25.682846c2.70232,9.468928 4.734464,18.916237 7.436784,27.023196s5.404639,14.873567 8.106959,20.948382c12.171248,-4.734464 24.320877,-8.106959 32.427835,-10.139103c8.777134,-2.70232 16.884093,-4.734464 24.991052,-5.404639l7.436784,0c2.70232,-0.670175 5.404639,-0.670175 7.436784,-0.670175l-0.021619,-0.021619l0,-0.000001zm28.385165,-79.037444l0,78.367269c4.734464,0.670175 10.139103,1.361969 15.543742,2.032144c6.074815,0.670175 13.511598,2.032144 19.586413,3.372495l10.139103,2.032144c3.372495,1.361969 7.436784,2.032144 10.809278,2.70232c4.064289,1.361969 8.106959,2.032144 12.171248,3.372495c3.372495,1.361969 6.766608,2.032144 9.468928,3.372495c8.777134,-22.288732 14.181773,-40.534794 17.575887,-56.078537c3.372495,-14.873567 4.734464,-27.693371 4.734464,-38.50265l0,-0.670175l-99.985826,0l-0.043237,0zm199.971652,0.670175l0,-0.670175l-77.697094,0l0,4.064289c-0.670175,12.841423 -2.70232,27.693371 -5.404639,43.237114c-2.70232,14.873567 -8.777134,32.427835 -16.884093,54.046392c10.809278,5.404639 20.948382,10.809278 29.055341,16.213918s15.543742,11.479454 20.948382,16.884093c11.479454,-11.479454 21.618557,-27.023196 30.395691,-47.301403c8.777134,-19.586413 14.873567,-39.864619 18.246062,-61.483176c0.670175,-4.064289 0.670175,-8.106959 1.361969,-12.171248l0,-12.841423l-0.021619,0.021619zm-228.356817,205.376291l0,-105.390465c-16.884093,2.70232 -31.087485,6.074815 -41.896763,8.777134s-18.916237,5.404639 -24.320877,8.106959c4.064289,10.139103 8.106959,18.916237 12.171248,27.023196c4.064289,7.436784 8.777134,15.543742 12.841423,22.288732c1.361969,2.70232 4.064289,5.404639 6.074815,8.777134c2.032144,2.70232 3.372495,6.074815 5.404639,8.777134c2.032144,3.372495 4.064289,7.436784 6.074815,11.479454c2.70232,3.372495 4.734464,7.436784 7.436784,10.139103l16.213918,0l0,0.021619l-0.000002,0zm28.385165,0l15.543742,0c6.074815,-4.734464 12.171248,-11.479454 16.884093,-18.916237c5.404639,-7.436784 11.479454,-16.213918 15.543742,-23.650701c4.734464,-8.777134 9.468928,-16.884093 13.511598,-24.991052s7.436784,-15.543742 10.139103,-20.948382c-7.436784,-2.70232 -17.575887,-5.404639 -27.693371,-8.106959s-24.320877,-5.404639 -43.907289,-8.106959l0,104.72029l-0.021619,0l0.000001,0zm133.754012,-55.386743l0,-0.670175c-1.361969,-2.032144 -4.064289,-4.734464 -6.074815,-6.766608s-5.404639,-4.734464 -8.777134,-6.766608c-2.70232,-2.032144 -6.074815,-4.064289 -10.139103,-6.074815s-9.468928,-4.734464 -14.181773,-7.436784c-2.70232,5.404639 -7.436784,14.873567 -14.181773,27.693371c-6.074815,12.841423 -16.884093,28.385165 -30.395691,45.269258c16.884093,-2.70232 31.75766,-8.777134 45.269258,-16.884093c14.873567,-7.436784 27.693371,-17.575887 38.50265,-28.385165l-0.021619,0.021619zm-251.315725,-21.618557l0,-0.670175c-4.734464,2.70232 -12.171248,6.074815 -19.586413,9.468928c-8.106959,3.372495 -16.884093,7.436784 -24.991052,12.841423c4.734464,4.064289 9.468928,8.106959 13.511598,10.809278c4.064289,3.372495 8.777134,6.074815 12.841423,8.777134c7.436784,4.734464 16.213918,9.468928 24.991052,13.511598s19.586413,8.106959 33.098011,12.171248c-4.734464,-5.404639 -8.106959,-12.171248 -11.479454,-17.575887s-7.436784,-10.809278 -10.809278,-16.213918s-6.074815,-11.479454 -8.777134,-16.884093c-3.372495,-5.404639 -6.074815,-10.809278 -8.777134,-16.213918l-0.021619,-0.021619l0,0.000001z" fill="#3e60dd" id="svg_5"/>
  <g id="svg_3"/>
 </g>
</svg>